<svg width="24" height="24" viewBox="0 0 24 24" fill="none" xmlns="http://www.w3.org/2000/svg">
    <path fill-rule="evenodd" clip-rule="evenodd" d="M12 3C11.4474 3 10.9994 3.448 10.9994 4.00065C10.9994 4.55329 11.4474 5.00129 12 5.00129C15.8653 5.00129 18.9987 8.13472 18.9987 12C18.9987 15.8653 15.8653 18.9987 12 18.9987C8.13472 18.9987 5.00129 15.8653 5.00129 12C5.00129 11.4474 4.55329 10.9994 4.00065 10.9994C3.448 10.9994 3 11.4474 3 12C3 16.9706 7.02944 21 12 21C16.9706 21 21 16.9706 21 12C21 7.02944 16.9706 3 12 3Z" fill="currentColor"/>
</svg>
