<svg width="64" height="88" viewBox="0 0 64 88" fill="none" xmlns="http://www.w3.org/2000/svg">
<path d="M0.5 2C0.5 1.17157 1.17157 0.5 2 0.5H46.1855C46.5771 0.5 46.9532 0.653173 47.2334 0.926789L63.048 16.3692C63.337 16.6515 63.5 17.0384 63.5 17.4424V86C63.5 86.8284 62.8284 87.5 62 87.5H2C1.17157 87.5 0.5 86.8284 0.5 86V2Z" fill="#EFF8FF" stroke="#CFEBFF"/>
<path d="M46 17V0H48.1716C48.702 0 49.2107 0.210714 49.5858 0.585786L63.4142 14.4142C63.7893 14.7893 64 15.298 64 15.8284V18H47C46.4477 18 46 17.5523 46 17Z" fill="#A0D6FF"/>
<path d="M20.6094 49.321H17V39.1392H20.6392C21.6634 39.1392 22.545 39.343 23.2841 39.7507C24.0232 40.1551 24.5916 40.7367 24.9893 41.4957C25.3904 42.2547 25.5909 43.1629 25.5909 44.2202C25.5909 45.2808 25.3904 46.1922 24.9893 46.9545C24.5916 47.7169 24.0199 48.3018 23.2741 48.7095C22.5317 49.1172 21.6435 49.321 20.6094 49.321ZM19.1527 47.4766H20.5199C21.1562 47.4766 21.6915 47.3639 22.1257 47.1385C22.5632 46.9098 22.8913 46.5568 23.1101 46.0795C23.3321 45.599 23.4432 44.9792 23.4432 44.2202C23.4432 43.4678 23.3321 42.853 23.1101 42.3757C22.8913 41.8984 22.5649 41.5471 22.1307 41.3217C21.6965 41.0964 21.1612 40.9837 20.5249 40.9837H19.1527V47.4766Z" fill="#1099FF"/>
<path d="M36.5421 44.2301C36.5421 45.3404 36.3316 46.285 35.9107 47.0639C35.4931 47.8428 34.923 48.4377 34.2005 48.8487C33.4812 49.2564 32.6725 49.4602 31.7743 49.4602C30.8695 49.4602 30.0575 49.2547 29.3382 48.8438C28.619 48.4328 28.0506 47.8378 27.633 47.0589C27.2154 46.2801 27.0066 45.3371 27.0066 44.2301C27.0066 43.1198 27.2154 42.1752 27.633 41.3963C28.0506 40.6174 28.619 40.0241 29.3382 39.6165C30.0575 39.2055 30.8695 39 31.7743 39C32.6725 39 33.4812 39.2055 34.2005 39.6165C34.923 40.0241 35.4931 40.6174 35.9107 41.3963C36.3316 42.1752 36.5421 43.1198 36.5421 44.2301ZM34.3596 44.2301C34.3596 43.5109 34.2518 42.9044 34.0364 42.4105C33.8243 41.9167 33.5243 41.5421 33.1365 41.2869C32.7488 41.0317 32.2947 40.9041 31.7743 40.9041C31.254 40.9041 30.7999 41.0317 30.4121 41.2869C30.0243 41.5421 29.7227 41.9167 29.5073 42.4105C29.2952 42.9044 29.1891 43.5109 29.1891 44.2301C29.1891 44.9493 29.2952 45.5559 29.5073 46.0497C29.7227 46.5436 30.0243 46.9181 30.4121 47.1733C30.7999 47.4285 31.254 47.5561 31.7743 47.5561C32.2947 47.5561 32.7488 47.4285 33.1365 47.1733C33.5243 46.9181 33.8243 46.5436 34.0364 46.0497C34.2518 45.5559 34.3596 44.9493 34.3596 44.2301Z" fill="#1099FF"/>
<path d="M47.1204 42.7038H44.9428C44.9031 42.4221 44.8219 42.1719 44.6992 41.9531C44.5766 41.7311 44.4192 41.5421 44.2269 41.3864C44.0347 41.2306 43.8126 41.1113 43.5607 41.0284C43.3121 40.9455 43.042 40.9041 42.7504 40.9041C42.2234 40.9041 41.7643 41.035 41.3732 41.2969C40.9821 41.5554 40.6789 41.9332 40.4634 42.4304C40.248 42.9242 40.1403 43.5241 40.1403 44.2301C40.1403 44.956 40.248 45.5658 40.4634 46.0597C40.6822 46.5535 40.9871 46.9264 41.3782 47.1783C41.7693 47.4302 42.2217 47.5561 42.7354 47.5561C43.0238 47.5561 43.2906 47.518 43.5359 47.4418C43.7844 47.3655 44.0049 47.2545 44.1971 47.1087C44.3893 46.9595 44.5484 46.7789 44.6744 46.5668C44.8036 46.3546 44.8931 46.1127 44.9428 45.8409L47.1204 45.8509C47.064 46.3182 46.9232 46.7689 46.6978 47.2031C46.4757 47.634 46.1758 48.0201 45.7979 48.3615C45.4234 48.6996 44.976 48.968 44.4556 49.1669C43.9386 49.3625 43.3536 49.4602 42.7006 49.4602C41.7925 49.4602 40.9805 49.2547 40.2646 48.8438C39.552 48.4328 38.9885 47.8378 38.5742 47.0589C38.1632 46.2801 37.9577 45.3371 37.9577 44.2301C37.9577 43.1198 38.1665 42.1752 38.5842 41.3963C39.0018 40.6174 39.5685 40.0241 40.2844 39.6165C41.0004 39.2055 41.8058 39 42.7006 39C43.2906 39 43.8375 39.0829 44.3413 39.2486C44.8484 39.4143 45.2975 39.6562 45.6886 39.9744C46.0797 40.2893 46.3978 40.6754 46.6431 41.1328C46.8917 41.5902 47.0508 42.1139 47.1204 42.7038Z" fill="#1099FF"/>
</svg>
