<svg width="64" height="88" viewBox="0 0 64 88" fill="none" xmlns="http://www.w3.org/2000/svg">
<path d="M0.5 2C0.5 1.17157 1.17157 0.5 2 0.5H46.1855C46.5771 0.5 46.9532 0.653173 47.2334 0.926789L63.048 16.3692C63.337 16.6515 63.5 17.0384 63.5 17.4424V86C63.5 86.8284 62.8284 87.5 62 87.5H2C1.17157 87.5 0.5 86.8284 0.5 86V2Z" fill="#EEFDF7" stroke="#CDF8E6"/>
<path d="M46 17V0H48.1716C48.702 0 49.2107 0.210714 49.5858 0.585786L63.4142 14.4142C63.7893 14.7893 64 15.298 64 15.8284V18H47C46.4477 18 46 17.5523 46 17Z" fill="#9BF0CC"/>
<path d="M21.5007 39.1392L23.554 42.6094H23.6335L25.6967 39.1392H28.1278L25.0206 44.2301L28.1974 49.321H25.7216L23.6335 45.8459H23.554L21.4659 49.321H19L22.1868 44.2301L19.0597 39.1392H21.5007Z" fill="#1DC37D"/>
<path d="M35.0135 42.0675C34.9737 41.6664 34.803 41.3549 34.5014 41.1328C34.1998 40.9107 33.7905 40.7997 33.2734 40.7997C32.9221 40.7997 32.6255 40.8494 32.3835 40.9489C32.1416 41.045 31.956 41.1792 31.8267 41.3516C31.7008 41.5239 31.6378 41.7195 31.6378 41.9382C31.6312 42.1205 31.6693 42.2796 31.7521 42.4155C31.8383 42.5514 31.956 42.669 32.1051 42.7685C32.2543 42.8646 32.4266 42.9491 32.6222 43.022C32.8177 43.0916 33.0265 43.1513 33.2486 43.201L34.1634 43.4197C34.6075 43.5192 35.0152 43.6518 35.3864 43.8175C35.7576 43.9832 36.0791 44.187 36.3509 44.429C36.6226 44.6709 36.8331 44.956 36.9822 45.2841C37.1347 45.6122 37.2126 45.9884 37.2159 46.4126C37.2126 47.0357 37.0535 47.576 36.7386 48.0334C36.4271 48.4875 35.9763 48.8404 35.3864 49.0923C34.7997 49.3409 34.0921 49.4652 33.2635 49.4652C32.4415 49.4652 31.7256 49.3393 31.1158 49.0874C30.5092 48.8355 30.0353 48.4626 29.6939 47.9688C29.3558 47.4716 29.1785 46.8568 29.1619 46.1243H31.245C31.2682 46.4657 31.366 46.7507 31.5384 46.9794C31.714 47.2048 31.9477 47.3755 32.2393 47.4915C32.5343 47.6042 32.8674 47.6605 33.2386 47.6605C33.6032 47.6605 33.9197 47.6075 34.1882 47.5014C34.46 47.3954 34.6705 47.2479 34.8196 47.0589C34.9688 46.87 35.0433 46.6529 35.0433 46.4077C35.0433 46.179 34.9754 45.9867 34.8395 45.831C34.7069 45.6752 34.5114 45.5426 34.2528 45.4332C33.9976 45.3239 33.6844 45.2244 33.3132 45.1349L32.2045 44.8565C31.3461 44.6477 30.6683 44.3213 30.1712 43.8771C29.674 43.433 29.4271 42.8348 29.4304 42.0824C29.4271 41.4659 29.5911 40.9273 29.9226 40.4666C30.2573 40.0059 30.7164 39.6463 31.2997 39.3878C31.883 39.1293 32.5459 39 33.2884 39C34.044 39 34.7036 39.1293 35.267 39.3878C35.8338 39.6463 36.2746 40.0059 36.5895 40.4666C36.9044 40.9273 37.0668 41.4609 37.0767 42.0675H35.0135Z" fill="#1DC37D"/>
<path d="M38.6639 49.321V39.1392H40.8166V47.5462H45.1816V49.321H38.6639Z" fill="#1DC37D"/>
</svg>
