<svg width="192" height="48" xmlns="http://www.w3.org/2000/svg"><path d="M24.031 46.146c12.251 0 22.18-9.915 22.18-22.146 0-12.232-9.929-22.146-22.18-22.146C11.784 1.854 1.858 11.768 1.858 24c0 12.23 9.926 22.146 22.173 22.146zm0-46.146C37.31 0 48.068 10.746 48.068 24s-10.76 24-24.037 24C10.761 48 0 37.254 0 24S10.76 0 24.031 0zm0 41c-.79 0-1.266-.527-1.295-1.248-.173.325-.396.545-.732.612a1.69 1.69 0 01-.99-.114 1.325 1.325 0 01-.701-.654c-.15-.304-.1-.617.007-.982-.372.53-1 .668-1.553.412-.758-.352-1.034-.991-.723-1.72.936-2.208 1.867-4.376 2.807-6.581.085-.2.157-.407.251-.606.084-.177.137-.307.216-.414a.757.757 0 01.221-.199c-1.454.159-2.153.728-2.538.98-.102.068-.096.078-.489-.044a.69.69 0 00-.521.056 3.878 3.878 0 00-.51.323c-.521.404-1.053.794-1.546 1.23-.23.204-.56.551-.515.865.036.291.751.965.965 1.166.507.476-.26 1.372-1.282 1.287.272-.284.336-.525.301-.739-.101-.001-.296.018-.48-.146-.22-.197-.122-.779-.326-.977-.36-.348-1.537-.38-2.24-.41-.296-.012-.605-.091-.583-.548-.447.03-.54.36-.54.658-.385-.216-.714-1.252.706-1.487-.24-.217-.638-.296-.883-.02-.231-.38.353-1.127 1.404-.706-.003-.003.473-.621 1.894.96.179-.134.357-.266.52-.416.55-.497 1.936-1.843 1.936-1.843 0-.757.114-2.223 1.121-3.102.429-.375.84-.574 1.748-.737 0 0-.439-.683-.508-.952-.792.786-2.383 1.021-2.383-.305-1.297 1.287-2.502.593-2.502-.215a5.248 5.248 0 01-.277 1.2c-.163.434-.757 2.097-2.29 2.097-.035.578-.038 2.479-1.87 2.905-.079.018-.18.045-.23.105-.74.914-3.816 1.874-4.192 1.615.238-.17.615-.395.675-1.468.038-.708.116-4.382.116-9.557 0-1.832.199-7.766 6.11-8.593.897-.125 1.779-.06 2.543.503 1.04.772 1.552 2.07.94 3.541-.02.053-.035.105-.063.152-.208.35-.123.652.148.92.493.487 1.068.816 1.76.896.436.05.798-.141 1.087-.439.663-.678 1.113-1.475 1.276-2.411.308-1.778-.17-2.67-.197-2.726-.481-.958-1.502-1.66-2.686-1.76-.542-1.006-2.098-.608-2.098-.608-.39.084-.527.194-.624.385 0 0-.683-1.032-.04-1.446.645-.415 2.084-.586 2.084-.586 0-.672 1.12-1.195 3.143-.836 2.447.434 2.973-.516 2.973-.516.103 1.162-.793 1.762-1.08 1.924.929 1 2.226 2.998 2.535 5.833.31-2.835 1.607-4.833 2.535-5.833-.287-.162-1.182-.762-1.08-1.924 0 0 .526.95 2.973.516 2.024-.359 3.144.164 3.144.836 0 0 1.439.17 2.083.586.644.414-.04 1.446-.04 1.446-.097-.191-.234-.3-.624-.385 0 0-1.556-.398-2.098.608-1.184.1-2.204.802-2.685 1.76-.027.056-.477.94-.198 2.726.147.938.613 1.733 1.277 2.411.289.298.65.488 1.087.439.691-.08 1.267-.41 1.76-.896.27-.268.355-.57.148-.92-.029-.047-.044-.099-.063-.152-.613-1.47-.1-2.77.94-3.54.763-.563 1.646-.63 2.542-.504 5.912.827 6.11 6.761 6.11 8.593 0 5.175.079 8.849.116 9.557.06 1.073.437 1.298.676 1.468-.377.26-3.453-.701-4.193-1.615-.05-.06-.15-.087-.229-.105-1.832-.426-1.835-2.327-1.87-2.905-1.533 0-2.128-1.663-2.291-2.097a5.247 5.247 0 01-.277-1.2c0 .808-1.204 1.502-2.501.215 0 1.326-1.592 1.091-2.383.305-.07.269-.51.952-.51.952.91.163 1.32.362 1.75.737 1.006.88 1.12 2.345 1.12 3.102 0 0 1.387 1.346 1.937 1.843.162.15.34.282.52.416 1.42-1.581 1.896-.963 1.893-.96 1.051-.421 1.635.327 1.405.705-.245-.275-.644-.196-.884.02 1.42.236 1.091 1.272.707 1.488 0-.298-.094-.628-.54-.658.022.457-.288.536-.584.548-.703.03-1.88.062-2.24.41-.204.198-.105.78-.326.977-.183.164-.378.145-.48.146-.034.214.03.455.302.74-1.023.084-1.79-.812-1.282-1.288.212-.2.928-.875.964-1.166.046-.314-.285-.661-.515-.865-.493-.436-1.024-.826-1.546-1.23a3.878 3.878 0 00-.51-.323.69.69 0 00-.52-.056c-.393.122-.387.112-.49.045-.385-.253-1.083-.822-2.538-.98.099.06.166.124.221.198.08.107.133.237.216.414.094.2.167.406.252.606.94 2.205 1.87 4.373 2.806 6.58.312.73.035 1.37-.722 1.72-.554.257-1.182.12-1.553-.41.107.364.157.677.006.981a1.322 1.322 0 01-.7.654 1.69 1.69 0 01-.99.114c-.337-.067-.56-.287-.733-.612-.029.721-.505 1.249-1.295 1.249zm38.376-10.748a56.58 56.58 0 002.015.048c2.802 0 4.432-1.306 4.432-3.745 0-2.63-1.94-3.483-6.447-3.483v7.18zm2.256-15.639c1.324 0 4.026-.118 5.569-.213a7.44 7.44 0 00-.07.853c0 .166.05.546.07.806-1.378-.19-3.654-.33-4.362-.33-.496 0-2.42.045-3.463.14v5.949h1.208c2.47 0 7.668.473 7.668 4.76 0 3.482-2.92 5.07-6.761 5.048-.43 0-2.04-.07-3.067-.07-.447 0-.993.022-1.374.07.145-2.607.19-6.21.19-9.195 0-2.676-.02-6.727-.19-8.03 1.52.071 4.03.212 4.582.212zm15.695 10.9l-1.569.235c-1.708.262-3.608.853-3.608 2.657 0 1.372.762 2.108 2.301 2.108.952 0 1.9-.333 2.876-1.35v-3.65zm-6.385-4.478c.927-1.136 2.632-1.632 4.06-1.632 2.49 0 4.22 1.229 4.22 4.19v5.876c0 1.209.26 1.492.757 1.492.17 0 .43-.048.571-.096l.141.57a4.223 4.223 0 01-1.78.452c-.782 0-1.278-.356-1.469-1.044l-.14-.518c-1.283 1.018-2.682 1.562-3.844 1.562-2.16 0-3.563-1.139-3.563-3.129 0-2.132 1.593-3.128 3.774-3.529l2.416-.45c.812-.143 1.242-.38 1.242-.971 0-2.584-1.093-3.246-2.896-3.246-1.4 0-2.447.402-3.203 1.944h-.286v-1.471zm13.002-1.327c.26 0 .757-.047 1.112-.07-.19 1.798-.214 4.783-.214 4.903.997.048 2.44.095 3.206.095.782 0 2.277-.047 2.988-.095 0-.143-.025-3.126-.21-4.903.397.023.922.07 1.203.07.265 0 .762-.047 1.118-.07-.19 1.777-.216 4.76-.216 5.992 0 .996.025 4.194.216 5.996a8.455 8.455 0 00-1.093-.07c-.401 0-.877.023-1.229.07.186-1.802.211-5 .211-5.756-1.042-.075-2.466-.168-3.012-.168-.646 0-2.23.046-3.182.118 0 .806.025 4.004.214 5.806a8.49 8.49 0 00-1.092-.07c-.401 0-.877.023-1.233.07.186-1.802.211-5 .211-5.996 0-1.209-.025-4.215-.211-5.992.401.023.927.07 1.213.07zm13.638 0c.257 0 .758-.047 1.109-.07-.186 1.777-.206 4.783-.206 5.213h.38c.783 0 4.792-4.552 5.173-5.213.33.023.873.07 1.159.07.24 0 .81-.047 1.162-.07l-5.669 5.07c.716.852 4.481 5.093 6.19 6.918a20.47 20.47 0 00-1.418-.07c-.431 0-1.073.023-1.57.07-.876-1.374-3.558-4.525-5.027-6.138h-.38c0 .877.02 4.336.206 6.138a8.325 8.325 0 00-1.088-.07c-.397 0-.873.023-1.233.07.195-1.802.22-5 .22-5.996 0-1.209-.025-4.215-.22-5.992.406.023.927.07 1.212.07zm20.705 2.843c3.323 0 5.272-1.326 5.272-3.839 0-2.345-1.854-2.983-4.155-2.983-.401 0-1.779.022-2.114.07v6.655c.29.052.761.097.997.097zm-.923-8.078c.828 0 1.9-.073 2.512-.073 4.39 0 6.1 1.329 6.1 4.312 0 3.864-3.253 5.095-7.114 5.095a24.24 24.24 0 01-1.572-.095v4.098c0 1.184.05 2.63.195 3.816a11.5 11.5 0 00-2.52 0c.144-2.608.194-6.209.194-9.194 0-2.676-.025-6.728-.195-8.032.786.023 1.854.073 2.4.073zM131.61 25.82c0 2.677 1.117 5.14 3.63 5.14 2.42 0 3.868-2.322 3.868-5.496 0-2.558-.997-5.14-3.678-5.14-2.562 0-3.82 2.677-3.82 5.496zm9.754-.26c0 3.625-2.355 6.326-6.075 6.326-3.654 0-5.934-2.676-5.934-5.994 0-3.932 2.516-6.49 6.145-6.49 3.608 0 5.864 2.605 5.864 6.158zm11.628-3.341h-.286c-.832-1.35-1.99-1.895-3.298-1.895-2.777 0-4.105 2.678-4.105 5.283 0 3.009 1.66 5.354 4.602 5.354.976 0 1.853-.14 3.227-1.635l.215.261-.285 1.161c-1.143.76-2.417 1.139-3.89 1.139-3.704 0-6.124-2.583-6.124-6.232 0-3.815 2.61-6.252 6.43-6.252 1.238 0 2.587.235 4.105 1.041l-.591 1.775zm11.975 0h-.282c-.827-1.35-1.99-1.895-3.293-1.895-2.781 0-4.11 2.678-4.11 5.283 0 3.009 1.669 5.354 4.606 5.354.968 0 1.85-.14 3.224-1.635l.21.261-.28 1.161c-1.139.76-2.421 1.139-3.89 1.139-3.7 0-6.12-2.583-6.12-6.232 0-3.815 2.61-6.252 6.43-6.252 1.233 0 2.586.235 4.105 1.041l-.6 1.775zm3.517 9.337c-.145 0-.571.045-.761.07.19-1.802.215-5 .215-5.996 0-1.21-.025-4.215-.215-5.992.405.023.922.07 1.208.07.26 0 .757-.047 1.118-.07-.19 1.777-.211 4.76-.211 5.992 0 .996.02 2.392.045 3.056 1.303-1.585 5.955-7.484 7.072-9.048.256.045.422.07.707.07.14 0 .637-.047.907-.07-.195 1.777-.22 4.76-.22 5.992 0 .996.025 4.194.22 5.995a8.627 8.627 0 00-1.093-.07c-.406 0-.877.023-1.237.07.19-1.8.215-5 .215-5.995a108.6 108.6 0 00-.046-3.246c-1.618 1.636-5.888 7.227-7.237 9.241a3.116 3.116 0 00-.687-.07zm13.437 0a9.4 9.4 0 00-.758.07c.186-1.802.211-5 .211-5.996 0-1.21-.025-4.215-.21-5.992.4.023.918.07 1.203.07.261 0 .762-.047 1.118-.07-.19 1.777-.212 4.76-.212 5.992 0 .996.021 2.392.046 3.056 1.304-1.585 5.95-7.484 7.068-9.048.26.045.426.07.712.07.14 0 .641-.047.902-.07-.187 1.777-.212 4.76-.212 5.992 0 .996.025 4.194.212 5.995a8.51 8.51 0 00-1.093-.07c-.401 0-.877.023-1.229.07.19-1.8.211-5 .211-5.995 0-1.231-.02-2.746-.045-3.246-1.614 1.636-5.889 7.227-7.242 9.241a3.049 3.049 0 00-.682-.07z" fill="#9096A3" fill-rule="evenodd"/></svg>