<svg width="304" height="88" viewBox="0 0 304 88" fill="none" xmlns="http://www.w3.org/2000/svg">
<path d="M289.439 77.82H202.106V71.382H282.985V15.697H289.439V77.82Z" fill="#040606"/>
<path d="M298.822 27.457L287.975 16.637H284.445L273.599 27.457L269.035 22.905L281.772 10.199H290.649L303.385 22.905L298.822 27.457ZM179.544 63.911V65.201C185.179 65.846 187.073 67.827 187.073 71.514C187.073 75.799 183.839 78.057 178.02 78.057H162.961V52.53H177.604C182.823 52.53 185.687 54.926 185.687 58.336C185.687 61.423 184.302 63.174 179.544 63.911ZM169.798 57.691V62.344H175.71C177.973 62.344 178.712 61.377 178.712 60.04C178.712 58.658 177.973 57.69 175.71 57.69L169.798 57.691ZM169.798 72.897H176.449C179.221 72.897 180.052 71.883 180.052 70.225C180.052 68.567 179.221 67.46 176.449 67.46H169.798V72.897ZM92.243 52.531V87.274H99.172V52.53L92.243 52.531ZM105.87 72.482C101.666 72.482 99.172 69.257 99.172 65.34C99.172 61.423 101.666 58.198 105.87 58.198C110.119 58.198 112.567 61.423 112.567 65.34C112.567 69.257 110.119 72.482 105.87 72.482ZM109.103 78.472C114.045 78.472 119.496 73.311 119.496 65.34C119.496 57.369 114.045 52.208 109.103 52.208C104.438 52.208 101.712 54.88 100.742 58.244H98.294L98.525 72.897H100.742C101.666 76.214 104.391 78.472 109.103 78.472ZM30.348 52.53V87.273H37.277V52.53H30.348ZM43.974 72.481C39.771 72.481 37.276 69.256 37.276 65.339C37.276 61.422 39.77 58.197 43.974 58.197C48.223 58.197 50.672 61.422 50.672 65.339C50.672 69.256 48.224 72.481 43.974 72.481ZM47.207 78.471C52.149 78.471 57.6 73.31 57.6 65.339C57.6 57.368 52.149 52.207 47.207 52.207C42.542 52.207 39.817 54.879 38.846 58.243H36.398L36.629 72.896H38.846C39.77 76.213 42.495 78.471 47.207 78.471ZM74.46 72.481C70.257 72.481 67.762 69.256 67.762 65.339C67.762 61.422 70.256 58.197 74.46 58.197C78.71 58.197 81.158 61.422 81.158 65.339C81.158 69.256 78.71 72.481 74.46 72.481ZM74.46 78.471C82.636 78.471 88.086 73.31 88.086 65.339C88.086 57.368 82.636 52.207 74.46 52.207C66.284 52.207 60.834 57.368 60.834 65.339C60.834 73.31 66.284 78.471 74.46 78.471ZM47.678 35.71H34.606V10.183H41.443V25.803L41.166 33.406H42.504L42.966 29.49L48.232 10.183H61.258V35.71H54.422V20.09L54.699 12.487H53.359L52.897 16.404L47.677 35.711L47.678 35.71ZM207.565 30.135C203.361 30.135 200.867 26.91 200.867 22.993C200.867 19.076 203.361 15.851 207.565 15.851C211.814 15.851 214.262 19.077 214.262 22.993C214.262 26.909 211.814 30.135 207.565 30.135ZM207.565 36.125C215.74 36.125 221.191 30.964 221.191 22.993C221.191 15.022 215.739 9.861 207.564 9.861C199.389 9.861 193.937 15.021 193.937 22.993C193.937 30.965 199.388 36.125 207.564 36.125H207.565ZM105.805 10.183V44.926H112.734V10.183H105.805ZM119.431 30.135C115.228 30.135 112.734 26.91 112.734 22.993C112.734 19.076 115.228 15.851 119.431 15.851C123.681 15.851 126.129 19.077 126.129 22.993C126.129 26.909 123.681 30.135 119.431 30.135ZM122.665 36.125C127.607 36.125 133.058 30.964 133.058 22.993C133.058 15.022 127.607 9.861 122.665 9.861C118 9.861 115.274 12.533 114.304 15.897H111.856L112.087 30.55H114.304C115.228 33.868 117.953 36.125 122.665 36.125ZM149.918 30.135C145.714 30.135 143.22 26.91 143.22 22.993C143.22 19.076 145.714 15.851 149.918 15.851C154.167 15.851 156.615 19.077 156.615 22.993C156.615 26.909 154.167 30.135 149.918 30.135ZM149.918 36.125C158.093 36.125 163.544 30.964 163.544 22.993C163.544 15.022 158.093 9.861 149.918 9.861C141.743 9.861 136.291 15.021 136.291 22.993C136.291 30.965 141.742 36.125 149.918 36.125ZM123.653 52.53H130.582V59.395H136.355C142.961 59.395 146.564 63.081 146.564 68.703C146.564 74.325 142.961 78.057 136.355 78.057H123.653V52.53ZM130.582 65.201V72.066H135.339C138.711 72.066 139.635 70.776 139.635 68.656C139.635 66.444 138.711 65.2 135.339 65.2L130.582 65.201ZM150.49 52.53V78.057H157.418V52.53H150.49ZM24.805 78.056H17.876V58.52H6.929V78.057H0V52.53H24.804V78.057L24.805 78.056ZM238.42 35.71H225.348V10.183H232.184V25.803L231.907 33.406H233.247L233.709 29.49L238.974 10.183H252V35.71H245.164V20.09L245.441 12.487H244.102L243.639 16.404L238.42 35.71ZM241.746 0H247.15C246.734 4.608 243.732 7.465 238.097 7.465C232.508 7.465 229.459 4.608 229.043 0H234.447C234.632 1.659 235.695 3.041 238.097 3.041C240.637 3.041 241.561 1.659 241.746 0ZM184.284 21.565V22.855C189.92 23.5 191.814 25.482 191.814 29.168C191.814 33.453 188.58 35.711 182.76 35.711H167.702V10.183H182.344C187.564 10.183 190.428 12.579 190.428 15.989C190.428 19.076 189.042 20.827 184.284 21.565ZM174.538 15.344V19.998H180.451C182.714 19.998 183.453 19.03 183.453 17.694C183.453 16.312 182.714 15.344 180.451 15.344H174.538ZM174.538 30.55H181.19C183.961 30.55 184.792 29.536 184.792 27.878C184.792 26.22 183.961 25.113 181.19 25.113H174.538V30.55ZM86.824 35.711V44.926H80.034V35.711H79.157C70.519 35.711 65.623 30.32 65.623 22.947C65.623 15.667 70.427 10.322 78.88 10.183H80.034V0.507H86.824V10.183H87.979C96.339 10.321 101.236 15.666 101.236 22.947C101.236 30.319 96.432 35.711 87.702 35.711H86.824ZM79.018 30.228H80.034V15.713H79.11C74.676 15.851 72.551 18.984 72.551 22.947C72.551 27.002 74.676 30.09 79.018 30.228ZM86.824 30.228H87.702C92.182 30.09 94.261 27.002 94.261 22.948C94.261 18.985 92.182 15.852 87.702 15.714H86.824V30.228ZM25.266 10.183H18.338V29.72H8.037V10.183H1.108V35.71H23.234V42.806H29.886V29.72H25.267L25.266 10.183Z" fill="#040606"/>
</svg>
